<svg width="1200" height="630" viewBox="0 0 1200 630" xmlns="http://www.w3.org/2000/svg">
  <defs>
    <!-- 背景漸層 -->
    <linearGradient id="bgGradient" x1="0%" y1="0%" x2="0%" y2="100%">
      <stop offset="0%" style="stop-color:#0f172a"/>
      <stop offset="50%" style="stop-color:#1e293b"/>
      <stop offset="100%" style="stop-color:#0f172a"/>
    </linearGradient>
    
    <!-- 星星閃爍 -->
    <filter id="glow">
      <feGaussianBlur stdDeviation="2" result="coloredBlur"/>
      <feMerge>
        <feMergeNode in="coloredBlur"/>
        <feMergeNode in="SourceGraphic"/>
      </feMerge>
    </filter>
  </defs>
  
  <!-- 背景 -->
  <rect width="1200" height="630" fill="url(#bgGradient)"/>
  
  <!-- 星星裝飾 -->
  <g fill="#fef08a" opacity="0.6">
    <rect x="100" y="80" width="4" height="4"/>
    <rect x="250" y="150" width="3" height="3"/>
    <rect x="400" y="60" width="4" height="4"/>
    <rect x="550" y="120" width="3" height="3"/>
    <rect x="700" y="70" width="4" height="4"/>
    <rect x="850" y="140" width="3" height="3"/>
    <rect x="1000" y="90" width="4" height="4"/>
    <rect x="1100" y="160" width="3" height="3"/>
    <rect x="150" y="200" width="3" height="3"/>
    <rect x="950" y="180" width="3" height="3"/>
  </g>
  
  <!-- 像素雲朵 - 左 -->
  <g fill="#cbd5e1" opacity="0.3">
    <rect x="80" y="280" width="40" height="20"/>
    <rect x="60" y="300" width="80" height="20"/>
    <rect x="70" y="320" width="60" height="10"/>
  </g>
  
  <!-- 像素雲朵 - 右 -->
  <g fill="#cbd5e1" opacity="0.3">
    <rect x="1020" y="320" width="50" height="20"/>
    <rect x="1000" y="340" width="90" height="20"/>
    <rect x="1010" y="360" width="70" height="10"/>
  </g>
  
  <!-- 太陽 (像素風格) -->
  <g transform="translate(900, 120)">
    <!-- 光芒 -->
    <rect x="-60" y="-5" width="20" height="10" fill="#fde047" opacity="0.6"/>
    <rect x="40" y="-5" width="20" height="10" fill="#fde047" opacity="0.6"/>
    <rect x="-5" y="-60" width="10" height="20" fill="#fde047" opacity="0.6"/>
    <rect x="-5" y="40" width="10" height="20" fill="#fde047" opacity="0.6"/>
    <!-- 太陽本體 -->
    <rect x="-25" y="-25" width="50" height="50" fill="#fbbf24"/>
    <rect x="-20" y="-20" width="40" height="40" fill="#fde047"/>
    <rect x="-15" y="-15" width="15" height="15" fill="#fef9c3" opacity="0.7"/>
  </g>
  
  <!-- 雨滴裝飾 -->
  <g fill="#60a5fa" opacity="0.5">
    <rect x="200" y="400" width="6" height="15"/>
    <rect x="240" y="420" width="6" height="15"/>
    <rect x="180" y="450" width="6" height="15"/>
    <rect x="220" y="470" width="6" height="15"/>
  </g>
  
  <!-- 角色 (像素小人) -->
  <g transform="translate(200, 350)">
    <!-- 身體 -->
    <rect x="0" y="0" width="60" height="80" fill="#3b82f6"/>
    <rect x="5" y="5" width="50" height="70" fill="#60a5fa"/>
    <!-- 頭 -->
    <rect x="5" y="-50" width="50" height="50" fill="#fcd34d"/>
    <rect x="10" y="-45" width="40" height="40" fill="#fde68a"/>
    <!-- 眼睛 -->
    <rect x="15" y="-35" width="10" height="10" fill="#1e293b"/>
    <rect x="35" y="-35" width="10" height="10" fill="#1e293b"/>
    <!-- 嘴巴 -->
    <rect x="20" y="-18" width="20" height="5" fill="#1e293b"/>
    <!-- 帽子 -->
    <rect x="0" y="-65" width="60" height="15" fill="#ef4444"/>
    <rect x="15" y="-75" width="30" height="10" fill="#ef4444"/>
  </g>
  
  <!-- 主標題 -->
  <text x="600" y="280" 
        font-family="'Press Start 2P', 'Courier New', monospace" 
        font-size="52" 
        fill="#fef08a" 
        text-anchor="middle"
        filter="url(#glow)">
    像素天氣日誌
  </text>
  
  <!-- 英文副標題 -->
  <text x="600" y="340" 
        font-family="'Press Start 2P', 'Courier New', monospace" 
        font-size="28" 
        fill="#94a3b8" 
        text-anchor="middle">
    Pixel Weather
  </text>
  
  <!-- 說明文字 -->
  <text x="600" y="420" 
        font-family="'Microsoft JhengHei', sans-serif" 
        font-size="22" 
        fill="#cbd5e1" 
        text-anchor="middle">
    探索台灣各地天氣 ⚔️ RPG 風格即時天氣查詢
  </text>
  
  <!-- 底部裝飾線 -->
  <rect x="300" y="480" width="600" height="4" fill="#fef08a" opacity="0.3"/>
  
  <!-- 像素地面 -->
  <g fill="#166534">
    <rect x="0" y="580" width="1200" height="50"/>
    <rect x="0" y="570" width="100" height="10"/>
    <rect x="150" y="565" width="80" height="15"/>
    <rect x="300" y="570" width="120" height="10"/>
    <rect x="500" y="565" width="90" height="15"/>
    <rect x="680" y="570" width="100" height="10"/>
    <rect x="850" y="565" width="70" height="15"/>
    <rect x="1000" y="570" width="100" height="10"/>
    <rect x="1120" y="565" width="80" height="15"/>
  </g>
  
  <!-- 草地細節 -->
  <g fill="#22c55e">
    <rect x="50" y="575" width="30" height="5"/>
    <rect x="200" y="572" width="40" height="8"/>
    <rect x="380" y="575" width="35" height="5"/>
    <rect x="550" y="572" width="45" height="8"/>
    <rect x="750" y="575" width="30" height="5"/>
    <rect x="920" y="572" width="40" height="8"/>
    <rect x="1080" y="575" width="35" height="5"/>
  </g>
  
  <!-- 像素樹 - 左 -->
  <g transform="translate(100, 480)">
    <rect x="15" y="50" width="20" height="40" fill="#854d0e"/>
    <rect x="0" y="10" width="50" height="40" fill="#166534"/>
    <rect x="10" y="0" width="30" height="20" fill="#22c55e"/>
  </g>
  
  <!-- 像素樹 - 右 -->
  <g transform="translate(1050, 490)">
    <rect x="15" y="40" width="20" height="35" fill="#854d0e"/>
    <rect x="0" y="5" width="50" height="35" fill="#166534"/>
    <rect x="10" y="0" width="30" height="15" fill="#22c55e"/>
  </g>
  
  <!-- 台灣標記 -->
  <g transform="translate(600, 530)">
    <text font-family="'Press Start 2P', 'Courier New', monospace" 
          font-size="14" 
          fill="#fef08a" 
          text-anchor="middle"
          opacity="0.8">
      🇹🇼 Taiwan Weather Data
    </text>
  </g>
</svg>
